# xmcd
#
# Track frame offsets:
#	182
#	18445
#	31145
#	48627
#	67082
#	87057
#	106287
#	124900
#	144020
#
# Disc length: 2202 seconds
#
# Revision: 0
# Processed by: cddbd v1.5.1PL0 Copyright (c) Steve Scherf et al.
# Submitted via: dBpowerAMP V4.0
#
DISCID=71089809
DTITLE=소나무 - 하나가 되어
DYEAR=1994
DGENRE=Folk
TTITLE0=여행
TTITLE1=샐러리맨
TTITLE2=꿈꾸는 그대는 내맘을 아는지
TTITLE3=우리 아버지
TTITLE4=여름날의 기억
TTITLE5=세라
TTITLE6=신데렐라 콤플렉스
TTITLE7=가면을 쓰고
TTITLE8=하나가 되어
EXTD=yun uisung\n\nSONAMU 1994
EXTT0=
EXTT1=
EXTT2=
EXTT3=
EXTT4=
EXTT5=
EXTT6=
EXTT7=
EXTT8=
PLAYORDER=
